# xmcd
#
# Track frame offsets:
#	182
#	18417
#	30542
#	42957
#	58070
#	69192
#	81315
#	93957
#	103817
#	117552
#	128417
#	145152
#	156665
#	167980
#	184980
#	198790
#	211537
#	224140
#	241137
#	253782
#	270205
#	293912
#	312917
#	330705
#
# Disc length: 4607
#
# Revision: 2
# Processed by: cddbd v1.5.1PL0 Copyright (c) Steve Scherf et al.
# Submitted via: EasyCDDAExtractor 5.1.0
# Normalized: r1:DSETVAR1
#
DISCID=6011fd18
DTITLE=Various Artist - Ocean Drive Volume III
DYEAR=1900
DGENRE=
TTITLE0=Hot Chocolate - It Started With A Kiss
TTITLE1=Judy Clay and William Bell - Private Number
TTITLE2=O'Jays - Lipstick Traces
TTITLE3=Cornelius Brothers and Sister Rose - Too Late To Turn Back Now
TTITLE4=Falcons - You're So Fine
TTITLE5=Eddie Floyd - I've Never Found A Girl
TTITLE6=Johnny Taylor - Who's Making Love
TTITLE7=Jarmels - Little Bit Of Soap, A
TTITLE8=Syl Johnson - Take Me To The River
TTITLE9=Little Anthony and The Imperials - Reputation
TTITLE10=Gary US Bonds - This Little Girl
TTITLE11=Betty Swann - Don't Touch Me
TTITLE12=PJ Proby - Niki Hoeky
TTITLE13=Tavares - Being With You
TTITLE14=Lou Rawls and Dianne Reeves - Fine Brown Frame
TTITLE15=Falcons - Teacher, The
TTITLE16=Otis Clay - Trying To Live My Life Without You
TTITLE17=Neville Brothers - Old Habits Die Hard
TTITLE18=Jay Booker - Hot Red Sweater
TTITLE19=Dan Seals - Bop
TTITLE20=Earl Thomas - Way She Shakes That Thang, The
TTITLE21=Soul Patrol - Shake Rattle And Roll
TTITLE22=Band Of Oz - Baby What You Want Me To Do
TTITLE23=Percy Sledge - She's Too Pretty To Cry
EXTD=
EXTT0=
EXTT1=
EXTT2=
EXTT3=
EXTT4=
EXTT5=
EXTT6=
EXTT7=
EXTT8=
EXTT9=
EXTT10=
EXTT11=
EXTT12=
EXTT13=
EXTT14=
EXTT15=
EXTT16=
EXTT17=
EXTT18=
EXTT19=
EXTT20=
EXTT21=
EXTT22=
EXTT23=
PLAYORDER=
